# xmcd
# Copyright (c) 1998 CDDB Inc.
#
# Track frame offsets:
#	150
#	21287
#	34840
#	45681
#	61898
#	82081
#	96443
#	110571
#	120485
#	141226
#	153647
#	172212
#	186488
#	215172
#
# Disc length: 3040 seconds
#
# Revision: 0
# Processed by: cddbd v1.4PL0 Copyright (c) Steve Scherf et al.
# Submitted via: audiograbber 1.70
#
DISCID=d70bde0e
DTITLE=Сборник блатной лирики - Воровской 6
DYEAR=1900
DGENRE=
TTITLE0=Г. Диамант - Три китайца красят яйца
TTITLE1=К. Ундров - Привет от ростовских
TTITLE2=С. Русских - Сенечка и я
TTITLE3=М. Скубилин - Листопад
TTITLE4=Анапа - Гуляйте, караси
TTITLE5=А. Марков - Исповедь
TTITLE6=А. Мартынов - Прошмандовка
TTITLE7=Гоп - Одесса
TTITLE8=М. Мордмилович - Каждому своё
TTITLE9=А. Жданов - Галики
TTITLE10=И. Словесник - Безысходность
TTITLE11=А. Никитин - Сирота
TTITLE12=А.Ковалёв - Возвращение
TTITLE13=О. Чистяков - Застывшее сердце
EXTD=
EXTT0=
EXTT1=
EXTT2=
EXTT3=
EXTT4=
EXTT5=
EXTT6=
EXTT7=
EXTT8=
EXTT9=
EXTT10=
EXTT11=
EXTT12=
EXTT13=
PLAYORDER=
